<svg xmlns="http://www.w3.org/2000/svg" xmlns:xlink="http://www.w3.org/1999/xlink" width="200" zoomAndPan="magnify" viewBox="0 0 150 149.999998" height="200" preserveAspectRatio="xMidYMid meet" version="1.2"><defs><clipPath id="61273a5f80"><path d="M 17 3.203125 L 134 3.203125 L 134 144.953125 L 17 144.953125 Z M 17 3.203125 "/></clipPath><clipPath id="e513b377df"><path d="M 17 123 L 134 123 L 134 144.953125 L 17 144.953125 Z M 17 123 "/></clipPath><clipPath id="66972e8530"><path d="M 98 3.203125 L 134 3.203125 L 134 39 L 98 39 Z M 98 3.203125 "/></clipPath><clipPath id="6c79e8154b"><path d="M 98 3.203125 L 127 3.203125 L 127 29 L 98 29 Z M 98 3.203125 "/></clipPath></defs><g id="13b234b249"><path style="fill:none;stroke-width:4;stroke-linecap:butt;stroke-linejoin:miter;stroke:#278d46;stroke-opacity:1;stroke-miterlimit:4;" d="M 0.0000023 1.999692 L 64.000006 1.999692 " transform="matrix(0.75,0,0,0.75,50.999998,77.636949)"/><g clip-rule="nonzero" clip-path="url(#61273a5f80)"><path style=" stroke:none;fill-rule:nonzero;fill:#ffffff;fill-opacity:1;" d="M 27.007812 3.949219 L 101.066406 3.949219 C 102.304688 3.949219 103.296875 4.941406 103.296875 6.097656 L 103.296875 28.828125 C 103.296875 31.554688 105.527344 33.785156 108.253906 33.785156 L 130.902344 33.785156 C 132.140625 33.785156 133.132812 34.777344 133.132812 35.933594 L 133.132812 135.613281 C 133.132812 140.738281 128.917969 144.953125 123.710938 144.953125 L 27.007812 144.953125 C 21.800781 144.953125 17.585938 140.738281 17.585938 135.613281 L 17.585938 13.289062 C 17.585938 8.164062 21.882812 3.949219 27.007812 3.949219 Z M 27.007812 3.949219 "/></g><g clip-rule="nonzero" clip-path="url(#e513b377df)"><path style=" stroke:none;fill-rule:nonzero;fill:#6bbafb;fill-opacity:1;" d="M 133.132812 125.695312 L 133.132812 135.613281 C 133.132812 140.738281 128.917969 144.953125 123.710938 144.953125 L 27.007812 144.953125 C 21.800781 144.953125 17.585938 140.738281 17.585938 135.613281 L 17.585938 123.464844 L 133.132812 123.464844 Z M 133.132812 125.695312 "/></g><path style=" stroke:none;fill-rule:nonzero;fill:#0048c7;fill-opacity:1;" d="M 133.132812 125.695312 L 133.132812 126.355469 C 133.132812 131.566406 128.917969 135.78125 123.710938 135.78125 L 27.007812 135.78125 C 21.800781 135.78125 17.585938 131.566406 17.585938 126.355469 L 17.585938 123.464844 L 133.132812 123.464844 Z M 133.132812 125.695312 "/><g clip-rule="nonzero" clip-path="url(#66972e8530)"><path style=" stroke:none;fill-rule:nonzero;fill:#0048c7;fill-opacity:1;" d="M 98.832031 28.828125 L 98.832031 6.097656 C 98.832031 4.195312 101.230469 3.203125 102.636719 4.527344 L 132.472656 34.363281 C 133.878906 35.769531 132.886719 38.167969 130.902344 38.167969 L 108.253906 38.167969 C 103.046875 38.167969 98.832031 33.953125 98.832031 28.828125 Z M 98.832031 28.828125 "/></g><g clip-rule="nonzero" clip-path="url(#6c79e8154b)"><path style=" stroke:none;fill-rule:nonzero;fill:#6bbafb;fill-opacity:1;" d="M 98.832031 18.824219 L 98.832031 6.097656 C 98.832031 4.195312 101.230469 3.203125 102.636719 4.527344 L 126.191406 28.164062 L 108.253906 28.164062 C 103.046875 28.164062 98.832031 23.949219 98.832031 18.824219 Z M 98.832031 18.824219 "/></g><path style=" stroke:none;fill-rule:nonzero;fill:#6bbafb;fill-opacity:1;" d="M 39.074219 63.046875 L 111.644531 63.046875 C 116.851562 63.046875 121.066406 67.179688 121.066406 72.386719 L 121.066406 107.097656 C 121.066406 112.304688 116.851562 116.523438 111.644531 116.523438 L 39.074219 116.523438 C 33.867188 116.523438 29.652344 112.304688 29.652344 107.097656 L 29.652344 72.386719 C 29.652344 67.179688 33.867188 63.046875 39.074219 63.046875 Z M 39.074219 63.046875 "/><path style=" stroke:none;fill-rule:nonzero;fill:#6bbafb;fill-opacity:1;" d="M 31.882812 55.109375 C 28.992188 55.109375 28.992188 50.730469 31.882812 50.730469 L 93.046875 50.730469 C 95.941406 50.730469 95.941406 55.109375 93.046875 55.109375 Z M 31.882812 55.109375 "/><path style=" stroke:none;fill-rule:nonzero;fill:#6bbafb;fill-opacity:1;" d="M 31.882812 43.125 C 28.992188 43.125 28.992188 38.664062 31.882812 38.664062 L 75.113281 38.664062 C 78.003906 38.664062 78.003906 43.125 75.113281 43.125 Z M 31.882812 43.125 "/><path style=" stroke:none;fill-rule:nonzero;fill:#ffffff;fill-opacity:1;" d="M 50.8125 100.816406 C 50.8125 103.710938 46.347656 103.710938 46.347656 100.816406 L 46.347656 78.75 C 46.347656 76.515625 49.40625 75.609375 50.5625 77.757812 L 58.910156 92.386719 L 58.910156 78.75 C 58.910156 75.773438 63.375 75.773438 63.375 78.75 L 63.375 100.816406 C 63.375 103.050781 60.316406 103.792969 59.242188 101.808594 L 58.664062 100.734375 L 50.8125 87.015625 Z M 50.8125 100.816406 "/><path style=" stroke:none;fill-rule:nonzero;fill:#ffffff;fill-opacity:1;" d="M 67.753906 78.75 C 67.753906 75.773438 72.21875 75.773438 72.21875 78.75 L 72.21875 100.816406 C 72.21875 103.710938 67.753906 103.710938 67.753906 100.816406 Z M 67.753906 78.75 "/><path style=" stroke:none;fill-rule:nonzero;fill:#ffffff;fill-opacity:1;" d="M 69.988281 80.898438 C 67.09375 80.898438 67.09375 76.515625 69.988281 76.515625 L 85.527344 76.515625 C 88.417969 76.515625 88.417969 80.898438 85.527344 80.898438 Z M 69.988281 80.898438 "/><path style=" stroke:none;fill-rule:nonzero;fill:#ffffff;fill-opacity:1;" d="M 69.988281 91.972656 C 67.09375 91.972656 67.09375 87.59375 69.988281 87.59375 L 82.054688 87.59375 C 84.945312 87.59375 84.945312 91.972656 82.054688 91.972656 Z M 69.988281 91.972656 "/><path style=" stroke:none;fill-rule:nonzero;fill:#ffffff;fill-opacity:1;" d="M 99.742188 76.929688 C 101.066406 77.261719 102.222656 77.921875 103.296875 78.832031 C 105.445312 80.734375 102.46875 84.039062 100.320312 82.054688 C 97.34375 79.328125 91.230469 81.726562 92.964844 85.277344 C 94.121094 87.59375 97.59375 87.59375 99.742188 88.585938 C 108.75 92.964844 103.460938 105.199219 93.128906 102.636719 C 85.691406 100.816406 89.742188 95.445312 92.46875 97.59375 C 95.527344 99.992188 101.230469 97.757812 99.742188 94.371094 C 98.253906 90.898438 91.808594 92.964844 88.996094 87.179688 C 86.847656 82.632812 89.90625 77.34375 95.527344 76.601562 C 96.933594 76.433594 98.417969 76.515625 99.742188 76.929688 Z M 99.742188 76.929688 "/></g></svg>